<mxfile host="app.diagrams.net" agent="Mozilla/5.0 (Macintosh; Intel Mac OS X 10_15_7) AppleWebKit/537.36 (KHTML, like Gecko) Chrome/131.0.0.0 Safari/537.36" version="26.0.4">
  <diagram name="Page-1" id="_DuuzQBxo9WAuid5H9jV">
    <mxGraphModel dx="954" dy="577" grid="0" gridSize="10" guides="1" tooltips="1" connect="1" arrows="1" fold="1" page="0" pageScale="1" pageWidth="850" pageHeight="1100" math="0" shadow="0">
      <root>
        <mxCell id="0" />
        <mxCell id="1" parent="0" />
        <mxCell id="A8HMXj_jt_l8X1Oau6-f-1" value="" style="shape=image;verticalLabelPosition=bottom;labelBackgroundColor=default;verticalAlign=top;aspect=fixed;imageAspect=0;image=https://github.com/aws-samples/trusted-advisor-slack-webhook/raw/main/TA-Slack-Arch.PNG;" vertex="1" parent="1">
          <mxGeometry x="43" y="670" width="765" height="405" as="geometry" />
        </mxCell>
        <mxCell id="A8HMXj_jt_l8X1Oau6-f-11" style="edgeStyle=orthogonalEdgeStyle;rounded=0;orthogonalLoop=1;jettySize=auto;html=1;" edge="1" parent="1" source="A8HMXj_jt_l8X1Oau6-f-2" target="A8HMXj_jt_l8X1Oau6-f-5">
          <mxGeometry relative="1" as="geometry" />
        </mxCell>
        <mxCell id="A8HMXj_jt_l8X1Oau6-f-2" value="EventBridge&lt;div&gt;&lt;span style=&quot;background-color: transparent; color: light-dark(rgb(35, 47, 62), rgb(189, 199, 212));&quot;&gt;Schedule&lt;/span&gt;&lt;/div&gt;" style="sketch=0;outlineConnect=0;fontColor=#232F3E;gradientColor=none;fillColor=#E7157B;strokeColor=none;dashed=0;verticalLabelPosition=bottom;verticalAlign=top;align=center;html=1;fontSize=12;fontStyle=1;aspect=fixed;pointerEvents=1;shape=mxgraph.aws4.eventbridge_scheduler;" vertex="1" parent="1">
          <mxGeometry x="60" y="300" width="58" height="58" as="geometry" />
        </mxCell>
        <mxCell id="A8HMXj_jt_l8X1Oau6-f-17" style="edgeStyle=orthogonalEdgeStyle;rounded=0;orthogonalLoop=1;jettySize=auto;html=1;entryX=0;entryY=0.5;entryDx=0;entryDy=0;" edge="1" parent="1" source="A8HMXj_jt_l8X1Oau6-f-5" target="A8HMXj_jt_l8X1Oau6-f-9">
          <mxGeometry relative="1" as="geometry" />
        </mxCell>
        <mxCell id="A8HMXj_jt_l8X1Oau6-f-5" value="Lambda" style="sketch=0;points=[[0,0,0],[0.25,0,0],[0.5,0,0],[0.75,0,0],[1,0,0],[0,1,0],[0.25,1,0],[0.5,1,0],[0.75,1,0],[1,1,0],[0,0.25,0],[0,0.5,0],[0,0.75,0],[1,0.25,0],[1,0.5,0],[1,0.75,0]];outlineConnect=0;fontColor=#232F3E;fillColor=#ED7100;strokeColor=#ffffff;dashed=0;verticalLabelPosition=bottom;verticalAlign=top;align=center;html=1;fontSize=12;fontStyle=1;aspect=fixed;shape=mxgraph.aws4.resourceIcon;resIcon=mxgraph.aws4.lambda;" vertex="1" parent="1">
          <mxGeometry x="220" y="300" width="58" height="58" as="geometry" />
        </mxCell>
        <mxCell id="A8HMXj_jt_l8X1Oau6-f-14" style="edgeStyle=orthogonalEdgeStyle;rounded=0;orthogonalLoop=1;jettySize=auto;html=1;" edge="1" parent="1" source="A8HMXj_jt_l8X1Oau6-f-6" target="A8HMXj_jt_l8X1Oau6-f-8">
          <mxGeometry relative="1" as="geometry" />
        </mxCell>
        <mxCell id="A8HMXj_jt_l8X1Oau6-f-6" value="SNS" style="sketch=0;points=[[0,0,0],[0.25,0,0],[0.5,0,0],[0.75,0,0],[1,0,0],[0,1,0],[0.25,1,0],[0.5,1,0],[0.75,1,0],[1,1,0],[0,0.25,0],[0,0.5,0],[0,0.75,0],[1,0.25,0],[1,0.5,0],[1,0.75,0]];outlineConnect=0;fontColor=#232F3E;fillColor=#E7157B;strokeColor=#ffffff;dashed=0;verticalLabelPosition=bottom;verticalAlign=top;align=center;html=1;fontSize=12;fontStyle=1;aspect=fixed;shape=mxgraph.aws4.resourceIcon;resIcon=mxgraph.aws4.sns;" vertex="1" parent="1">
          <mxGeometry x="450" y="230.78" width="58" height="58" as="geometry" />
        </mxCell>
        <mxCell id="A8HMXj_jt_l8X1Oau6-f-7" value="Trusted Advisor" style="sketch=0;points=[[0,0,0],[0.25,0,0],[0.5,0,0],[0.75,0,0],[1,0,0],[0,1,0],[0.25,1,0],[0.5,1,0],[0.75,1,0],[1,1,0],[0,0.25,0],[0,0.5,0],[0,0.75,0],[1,0.25,0],[1,0.5,0],[1,0.75,0]];points=[[0,0,0],[0.25,0,0],[0.5,0,0],[0.75,0,0],[1,0,0],[0,1,0],[0.25,1,0],[0.5,1,0],[0.75,1,0],[1,1,0],[0,0.25,0],[0,0.5,0],[0,0.75,0],[1,0.25,0],[1,0.5,0],[1,0.75,0]];outlineConnect=0;fontColor=#232F3E;fillColor=#E7157B;strokeColor=#ffffff;dashed=0;verticalLabelPosition=top;verticalAlign=bottom;align=center;html=1;fontSize=12;fontStyle=1;aspect=fixed;shape=mxgraph.aws4.resourceIcon;resIcon=mxgraph.aws4.trusted_advisor;labelPosition=center;" vertex="1" parent="1">
          <mxGeometry x="278" y="160" width="58" height="58" as="geometry" />
        </mxCell>
        <mxCell id="A8HMXj_jt_l8X1Oau6-f-8" value="Email Ops" style="sketch=0;outlineConnect=0;fontColor=#232F3E;gradientColor=none;fillColor=#232F3D;strokeColor=none;dashed=0;verticalLabelPosition=bottom;verticalAlign=top;align=center;html=1;fontSize=12;fontStyle=1;aspect=fixed;pointerEvents=1;shape=mxgraph.aws4.email_2;" vertex="1" parent="1">
          <mxGeometry x="580" y="241.56" width="58" height="36.44" as="geometry" />
        </mxCell>
        <mxCell id="A8HMXj_jt_l8X1Oau6-f-9" value="Slack Channel&lt;div&gt;Incoming Webhook&lt;/div&gt;" style="shape=image;html=1;verticalAlign=top;verticalLabelPosition=bottom;labelBackgroundColor=#ffffff;imageAspect=0;aspect=fixed;image=https://cdn2.iconfinder.com/data/icons/social-media-2285/512/1_Slack_colored_svg-128.png;fontStyle=1" vertex="1" parent="1">
          <mxGeometry x="450" y="358" width="58" height="58" as="geometry" />
        </mxCell>
        <mxCell id="A8HMXj_jt_l8X1Oau6-f-10" value="Parameter Store" style="sketch=0;outlineConnect=0;fontColor=#232F3E;gradientColor=none;fillColor=#E7157B;strokeColor=none;dashed=0;verticalLabelPosition=top;verticalAlign=bottom;align=center;html=1;fontSize=12;fontStyle=1;aspect=fixed;pointerEvents=1;shape=mxgraph.aws4.parameter_store;labelPosition=center;" vertex="1" parent="1">
          <mxGeometry x="162" y="160" width="58" height="60.32" as="geometry" />
        </mxCell>
        <mxCell id="A8HMXj_jt_l8X1Oau6-f-12" style="edgeStyle=orthogonalEdgeStyle;rounded=0;orthogonalLoop=1;jettySize=auto;html=1;entryX=0.25;entryY=0;entryDx=0;entryDy=0;entryPerimeter=0;" edge="1" parent="1" source="A8HMXj_jt_l8X1Oau6-f-10" target="A8HMXj_jt_l8X1Oau6-f-5">
          <mxGeometry relative="1" as="geometry" />
        </mxCell>
        <mxCell id="A8HMXj_jt_l8X1Oau6-f-15" style="edgeStyle=orthogonalEdgeStyle;rounded=0;orthogonalLoop=1;jettySize=auto;html=1;entryX=0.75;entryY=0;entryDx=0;entryDy=0;entryPerimeter=0;" edge="1" parent="1" source="A8HMXj_jt_l8X1Oau6-f-7" target="A8HMXj_jt_l8X1Oau6-f-5">
          <mxGeometry relative="1" as="geometry" />
        </mxCell>
        <mxCell id="A8HMXj_jt_l8X1Oau6-f-16" style="edgeStyle=orthogonalEdgeStyle;rounded=0;orthogonalLoop=1;jettySize=auto;html=1;entryX=0;entryY=0.5;entryDx=0;entryDy=0;entryPerimeter=0;" edge="1" parent="1" source="A8HMXj_jt_l8X1Oau6-f-5" target="A8HMXj_jt_l8X1Oau6-f-6">
          <mxGeometry relative="1" as="geometry" />
        </mxCell>
      </root>
    </mxGraphModel>
  </diagram>
</mxfile>
